<svg width="27" height="34" viewBox="0 0 27 34" fill="none" xmlns="http://www.w3.org/2000/svg">
<path d="M22.9176 20.3285C24.9878 20.3285 26.6658 22.0065 26.6658 24.0767V25.6073C26.6658 26.563 26.3672 27.4947 25.8115 28.2722C23.235 31.8775 19.0278 33.6637 13.3275 33.6637C7.62582 33.6637 3.42087 31.8768 0.8506 28.2695C0.297333 27.493 0 26.5633 0 25.6098V24.0767C0 22.0065 1.67808 20.3285 3.74812 20.3285H22.9176ZM13.3275 0.336304C17.9298 0.336304 21.6608 4.06727 21.6608 8.66964C21.6608 13.272 17.9298 17.003 13.3275 17.003C8.72505 17.003 4.99408 13.272 4.99408 8.66964C4.99408 4.06727 8.72505 0.336304 13.3275 0.336304Z" fill="#4931A9"/>
</svg>
