<svg width="27" height="35" viewBox="0 0 27 35" fill="none" xmlns="http://www.w3.org/2000/svg">
<path d="M23.0846 20.8285C25.1548 20.8285 26.8328 22.5065 26.8328 24.5767V26.1074C26.8328 27.063 26.5341 27.9947 25.9785 28.7722C23.402 32.3775 19.1948 34.1637 13.4945 34.1637C7.79281 34.1637 3.58786 32.3768 1.01759 28.7695C0.464325 27.993 0.166992 27.0634 0.166992 26.1099V24.5767C0.166992 22.5065 1.84508 20.8285 3.91511 20.8285H23.0846ZM13.4945 0.836319C18.0968 0.836319 21.8278 4.56729 21.8278 9.16965C21.8278 13.772 18.0968 17.503 13.4945 17.503C8.89204 17.503 5.16108 13.772 5.16108 9.16965C5.16108 4.56729 8.89204 0.836319 13.4945 0.836319Z" fill="#4931A9"/>
</svg>
